<?xml version="1.0" encoding="utf-8"?>

<!-- Uploaded to: SVG Repo, www.svgrepo.com, Generator: SVG Repo Mixer Tools -->
<svg fill="#3b82f6" height="800px" width="800px" version="1.1" id="Icons" xmlns="http://www.w3.org/2000/svg" xmlns:xlink="http://www.w3.org/1999/xlink"
	 viewBox="0 0 32 32" xml:space="preserve">
<path d="M28.5,21c-0.3-1-0.9-1.7-1.7-2.3c0.1-0.6,0.1-1.1,0.1-1.7c0-4.6-2.8-8.6-7-10.3C19.8,4.7,18.1,3,16,3c-2.1,0-3.8,1.7-4,3.7
	C7.8,8.4,5,12.4,5,17c0,0.6,0.1,1.1,0.1,1.7C4.3,19.2,3.7,20,3.5,21c-0.3,1-0.1,2.1,0.4,3c0.5,0.9,1.4,1.6,2.4,1.9
	C6.6,26,7,26,7.3,26c0.6,0,1.2-0.2,1.8-0.4c1.9,1.6,4.4,2.4,6.9,2.4c2.5,0,4.9-0.9,6.9-2.4c0.6,0.3,1.2,0.4,1.8,0.4
	c0.3,0,0.7,0,1-0.1c1-0.3,1.9-0.9,2.4-1.9C28.7,23.1,28.8,22,28.5,21z M10.6,24.2c0.2-0.4,0.4-0.8,0.6-1.2c0.3-1,0.1-2.1-0.4-3
	c-0.5-0.9-1.4-1.6-2.4-1.9C7.9,18,7.5,18,7.1,18C7,17.7,7,17.3,7,17c0-3.6,2.1-6.8,5.4-8.3c0.7,1.3,2,2.3,3.6,2.3s2.9-0.9,3.6-2.3
	c3.3,1.4,5.4,4.6,5.4,8.3c0,0.3,0,0.7-0.1,1c-0.4,0-0.9,0-1.3,0.1c-1,0.3-1.9,0.9-2.4,1.9c-0.5,0.9-0.7,2-0.4,3
	c0.1,0.4,0.3,0.8,0.6,1.2C19.8,25.4,17.9,26,16,26C14.1,26,12.2,25.4,10.6,24.2z"/>
</svg>
